# xmcd
#
# Track frame offsets:
#	150
#	23550
#	35000
#	73000
#	102265
#	138630
#	171887
#
# Disc length: 2548 seconds
#
# Revision: 1
# Processed by: cddbd v1.5.2PL0 Copyright (c) Steve Scherf et al.
# Submitted via: audiograbber 1.83.01
#
DISCID=5d09f207
DTITLE=Danny Adler - Funky Afternoons
DYEAR=1900
DGENRE=Blues
TTITLE0=Steamboat
TTITLE1=Steamboat Dub (Dick's Mix(
TTITLE2=Rod's Hat Shop (Mation, Ohio)
TTITLE3=Clean Up Person
TTITLE4=Winton Place
TTITLE5=Woodshed
TTITLE6=Thanx Chank (Dedicated To Jimmy Nolen)
EXTD=
EXTT0=
EXTT1=
EXTT2=
EXTT3=
EXTT4=
EXTT5=
EXTT6=
PLAYORDER=
